<?xml version="1.0" encoding="UTF-8" standalone="no"?>
<svg
   xmlns:dc="http://purl.org/dc/elements/1.1/"
   xmlns:cc="http://creativecommons.org/ns#"
   xmlns:rdf="http://www.w3.org/1999/02/22-rdf-syntax-ns#"
   xmlns:svg="http://www.w3.org/2000/svg"
   xmlns="http://www.w3.org/2000/svg"
   xmlns:sodipodi="http://sodipodi.sourceforge.net/DTD/sodipodi-0.dtd"
   xmlns:inkscape="http://www.inkscape.org/namespaces/inkscape"
   height="1024"
   width="1024"
   id="svg2"
   version="1.1"
   inkscape:version="0.91 r13725"
   sodipodi:docname="rc-logo.svg"
   inkscape:export-filename="/home/daniel/git/research-compendium.github.io/rc-logo.png"
   inkscape:export-xdpi="45"
   inkscape:export-ydpi="45">
  <sodipodi:namedview
     pagecolor="#ffffff"
     bordercolor="#666666"
     borderopacity="1"
     objecttolerance="10"
     gridtolerance="10"
     guidetolerance="10"
     inkscape:pageopacity="0"
     inkscape:pageshadow="2"
     inkscape:window-width="1855"
     inkscape:window-height="1056"
     id="namedview6"
     showgrid="false"
     inkscape:zoom="0.43603516"
     inkscape:cx="764.9802"
     inkscape:cy="287.75271"
     inkscape:window-x="65"
     inkscape:window-y="24"
     inkscape:window-maximized="1"
     inkscape:current-layer="svg2" />
  <metadata
     id="metadata10">
    <rdf:RDF>
      <cc:Work
         rdf:about="">
        <dc:format>image/svg+xml</dc:format>
        <dc:type
           rdf:resource="http://purl.org/dc/dcmitype/StillImage" />
      </cc:Work>
    </rdf:RDF>
  </metadata>
  <defs
     id="defs8" />
  <path
     d="M 512,96.000001 32.000001,224 32.000001,800 512,928 992,800 992,224 Z M 95.875001,752.934 95.500001,320 479.998,422.533 479.999,855.366 Z M 95.500001,256 255.754,213.266 672,324.265 672,324.4 512,367.067 Z M 928.125,752.934 544.001,855.366 544.002,422.533 672,388.4 672,424.4 800,390.265 800,354.267 928.5,320 Z M 800,290.267 800,290.142 383.734,179.138 512,144.934 928.5,256 Z"
     id="path4"
     inkscape:connector-curvature="0"
     sodipodi:nodetypes="ccccccccccccccccccccccccccccccccc" />
  <g
     transform="matrix(2.6598602,0,0,2.6598602,21.848407,-391.91176)"
     style="font-style:normal;font-variant:normal;font-weight:normal;font-stretch:normal;font-size:40px;line-height:125%;font-family:MetaNormalLF-Roman;-inkscape-font-specification:'MetaNormalLF-Roman, Normal';text-align:justify;letter-spacing:0px;word-spacing:0px;writing-mode:lr-tb;text-anchor:start;fill:#000000;fill-opacity:1;stroke:none;stroke-width:1px;stroke-linecap:butt;stroke-linejoin:miter;stroke-opacity:1"
     id="flowRoot4138" />
  <g
     transform="translate(-1195.418,584.31722)"
     style="font-style:normal;font-variant:normal;font-weight:normal;font-stretch:normal;font-size:40px;line-height:125%;font-family:MetaNormalLF-Roman;-inkscape-font-specification:'MetaNormalLF-Roman, Normal';text-align:justify;letter-spacing:0px;word-spacing:0px;writing-mode:lr-tb;text-anchor:start;fill:#000000;fill-opacity:1;stroke:none;stroke-width:1px;stroke-linecap:butt;stroke-linejoin:miter;stroke-opacity:1"
     id="flowRoot4138-3" />
  <path
     d="M 1237.3133,686.5062 1236.9803,302.07437 1578.4025,393.12046 1578.4034,777.4626 Z"
     id="path4-4"
     inkscape:connector-curvature="0"
     sodipodi:nodetypes="ccccc"
     style="fill:none;stroke:#ff0000;stroke-width:0.88796866" />
  <g
     id="flowRoot4138-33"
     style="font-style:normal;font-variant:normal;font-weight:normal;font-stretch:normal;font-size:106.39440918px;line-height:125%;font-family:MetaNormalLF-Roman;-inkscape-font-specification:'MetaNormalLF-Roman, Normal';text-align:justify;letter-spacing:0px;word-spacing:0px;writing-mode:lr-tb;text-anchor:start;fill:#000000;fill-opacity:1;stroke:none;stroke-width:1px;stroke-linecap:butt;stroke-linejoin:miter;stroke-opacity:1"
     transform="translate(-1731.3481,814.31625)" />
  <path
     d="M 1850.1923,657.98134 C 1832.0107,662.82977 1815.8732,664.14785 1801.7802,661.93563 1787.8917,659.83961 1776.15,654.52749 1766.5551,645.9996 1757.1649,637.58827 1750.0235,626.10507 1745.1308,611.55054 1740.2385,597.1677 1737.7985,580.17145 1737.8106,560.56238 1737.823,540.61428 1739.9781,522.31257 1744.2757,505.65672 1748.7771,488.94773 1755.5228,474.02716 1764.5126,460.89456 1773.7061,447.87865 1785.3477,436.68097 1799.4377,427.3012 1813.7314,418.03768 1830.6776,410.79282 1850.2767,405.56645 1868.4467,400.72115 1886.6163,397.57964 1904.7857,396.14189 1923.1595,394.64975 1943.0648,394.19751 1964.5016,394.78519 1964.5016,394.78519 1964.5046,328.34517 1964.5046,328.34517 1954.7065,327.55149 1945.0106,327.24154 1935.4169,327.41531 1925.8232,327.58911 1916.0254,328.24316 1906.0234,329.37747 1896.0216,330.51175 1885.7136,332.1535 1875.0993,334.30272 1864.6893,336.22712 1853.4626,338.79507 1841.4193,342.00658 1806.9225,351.20562 1777.0161,363.77907 1751.6991,379.72748 1726.3809,395.67664 1705.4479,414.20437 1688.9,435.31146 1672.3507,456.42035 1660.0847,479.79618 1652.1024,505.43993 1644.1192,531.08673 1640.1147,558.31734 1640.0897,587.1326 1640.0652,615.44045 1644.6384,640.13895 1653.8101,661.22692 1662.9828,682.48802 1676.4492,699.28057 1694.2096,711.60348 1711.9715,723.92744 1733.9258,731.29584 1760.0722,733.70797 1786.2197,736.29088 1816.2527,733.06004 1850.1702,724.01536 1872.4413,718.07639 1894.7129,709.74828 1916.9846,699.03125 1939.4601,688.43062 1960.9136,676.31102 1981.3449,662.67271 1981.3449,662.67271 1950.7038,606.35949 1950.7038,606.35949 1933.9525,617.47865 1917.0986,627.77252 1900.1422,637.24098 1883.1854,646.70968 1866.5353,653.6232 1850.1923,657.98134 1850.1923,657.98134 1850.1923,657.98134 1850.1923,657.98134"
     style="font-style:normal;font-variant:normal;font-weight:bold;font-stretch:normal;font-size:475px;line-height:125%;font-family:'Droid Sans';-inkscape-font-specification:'Droid Sans Bold';text-align:justify;letter-spacing:0px;word-spacing:0px;writing-mode:lr-tb;text-anchor:start;fill:#000000;fill-opacity:1;stroke:none;stroke-width:1px;stroke-linecap:butt;stroke-linejoin:miter;stroke-opacity:1"
     id="path4273"
     inkscape:connector-curvature="0" />
  <path
     d="M 1640.2556,395.64967 1639.9226,780.0815 1981.3448,689.03541 1981.3457,304.69327 Z"
     id="path4-4-9"
     inkscape:connector-curvature="0"
     sodipodi:nodetypes="ccccc"
     style="fill:none;stroke:#ff0000;stroke-width:0.88796866" />
  <path
     id="path4358"
     style="font-style:normal;font-variant:normal;font-weight:bold;font-stretch:normal;font-size:475.02484131px;line-height:125%;font-family:'Droid Sans';-inkscape-font-specification:'Droid Sans Bold';text-align:justify;letter-spacing:0px;word-spacing:0px;writing-mode:lr-tb;text-anchor:start;fill:#000000;fill-opacity:1;stroke:none;stroke-width:1px;stroke-linecap:butt;stroke-linejoin:miter;stroke-opacity:1"
     d="M 1332.7841,498.32895 C 1332.7841,498.32895 1358.7037,505.24081 1358.7037,505.24081 1385.2404,512.31725 1404.2667,512.92127 1415.7829,507.05267 1427.2996,501.00852 1433.055,489.22018 1433.0485,471.68671 1433.0417,453.45025 1426.8643,438.82725 1414.5158,427.81864 1402.1667,416.80957 1383.0288,407.84803 1357.1024,400.93433 1357.1024,400.93433 1332.7193,394.43214 1332.7193,394.43214 1332.7193,394.43214 1332.7841,498.32895 1332.7841,498.32895 1332.7841,498.32895 1332.7841,498.32895 1332.7841,498.32895 M 1332.8254,564.58394 C 1332.8254,564.58394 1332.9175,712.00038 1332.9175,712.00038 1332.9175,712.00038 1237.3133,686.5062 1237.3133,686.5062 1237.3133,686.5062 1236.9803,302.07437 1236.9803,302.07437 1236.9803,302.07437 1360.4606,335.0025 1360.4606,335.0025 1418.2903,350.42381 1460.9967,371.37285 1488.5775,397.8477 1516.1558,424.14461 1529.9463,456.67113 1529.9512,495.42348 1529.9528,508.57299 1527.8971,519.94586 1523.7841,529.54236 1519.6712,539.13831 1514.1184,547.21042 1507.1258,553.75888 1500.3392,560.18662 1492.4213,565.34844 1483.3721,569.24445 1474.5288,573.01992 1465.1713,575.69426 1455.2996,577.26754 1478.1388,614.54764 1498.6087,647.86251 1516.7103,677.21384 1524.5262,689.80751 1532.0332,702.05555 1539.2313,713.958 1546.6348,725.91469 1553.2153,736.60072 1558.973,746.01625 1564.7304,755.43139 1569.4595,762.99615 1573.1606,768.7107 1573.1606,768.7107 1578.4034,777.4626 1578.4034,777.4626 1578.4034,777.4626 1472.3141,749.17242 1472.3141,749.17242 1472.3141,749.17242 1374.4749,575.6904 1374.4749,575.6904 1374.4749,575.6904 1332.8254,564.58394 1332.8254,564.58394 1332.8254,564.58394 1332.8254,564.58394 1332.8254,564.58394"
     inkscape:connector-curvature="0" />
  <path
     d="M 772.17905,722.58591 C 755.57628,727.01332 740.8401,728.21694 727.97089,726.19683 715.28842,724.28282 704.56633,719.43198 695.80462,711.64463 687.22983,703.96371 680.70856,693.47767 676.24073,680.187 671.77326,667.05312 669.54514,651.53277 669.55619,633.62648 669.56751,615.4106 671.53547,598.69815 675.45988,583.48864 679.5704,568.2306 685.73032,554.60568 693.93948,542.61347 702.33465,530.72782 712.96533,520.5025 725.8318,511.93724 738.88429,503.47813 754.35894,496.86239 772.25612,492.08986 788.8483,487.66531 805.44011,484.7966 822.03174,483.4837 838.81002,482.12113 856.98681,481.70816 876.56211,482.24481 876.56211,482.24481 876.56485,421.57421 876.56485,421.57421 867.61759,420.84945 858.76365,420.56642 850.00303,420.7251 841.24241,420.88381 832.29542,421.48106 823.16196,422.51687 814.02868,423.55265 804.6158,425.05184 794.92321,427.01443 785.41718,428.77172 775.16537,431.11668 764.16787,434.04931 732.66665,442.44954 705.35722,453.93115 682.23866,468.49466 659.119,483.05885 640.00375,499.97769 624.89282,519.25192 609.7806,538.52778 598.57974,559.87374 591.29059,583.29067 584.00063,606.71039 580.34386,631.57639 580.32103,657.88943 580.29866,683.73913 584.47474,706.29289 592.85,725.54966 601.22618,744.96452 613.5232,760.29886 629.74135,771.55169 645.96087,782.80548 666.00873,789.53403 689.88467,791.7367 713.76161,794.09532 741.18665,791.14504 772.15887,782.88577 792.49602,777.46252 812.83362,769.85759 833.17133,760.07119 853.69513,750.39108 873.28568,739.32391 891.9428,726.8699 891.9428,726.8699 863.96247,675.44673 863.96247,675.44673 848.66579,685.60034 833.27543,695.00032 817.79146,703.64657 802.30714,712.29304 787.10288,718.60622 772.17905,722.58591 772.17905,722.58591 772.17905,722.58591 772.17905,722.58591"
     style="font-style:normal;font-variant:normal;font-weight:bold;font-stretch:normal;font-size:475px;line-height:125%;font-family:'Droid Sans';-inkscape-font-specification:'Droid Sans Bold';text-align:justify;letter-spacing:0px;word-spacing:0px;writing-mode:lr-tb;text-anchor:start;fill:#000000;fill-opacity:1;stroke:none;stroke-width:1px;stroke-linecap:butt;stroke-linejoin:miter;stroke-opacity:1"
     id="path4273-6"
     inkscape:connector-curvature="0" />
  <path
     id="path4358-7"
     style="font-style:normal;font-variant:normal;font-weight:bold;font-stretch:normal;font-size:475.02484131px;line-height:125%;font-family:'Droid Sans';-inkscape-font-specification:'Droid Sans Bold';text-align:justify;letter-spacing:0px;word-spacing:0px;writing-mode:lr-tb;text-anchor:start;fill:#000000;fill-opacity:1;stroke:none;stroke-width:1px;stroke-linecap:butt;stroke-linejoin:miter;stroke-opacity:1"
     d="M 217.55532,568.7614 C 217.55532,568.7614 241.22415,575.07306 241.22415,575.07306 265.45659,581.53501 282.83062,582.08658 293.34679,576.7276 303.86351,571.20829 309.11904,560.44361 309.1131,544.43268 309.10689,527.77982 303.46592,514.42663 292.18972,504.37398 280.91306,494.32089 263.43703,486.13754 239.76199,479.8242 239.76199,479.8242 217.49615,473.88664 217.49615,473.88664 217.49615,473.88664 217.55532,568.7614 217.55532,568.7614 217.55532,568.7614 217.55532,568.7614 217.55532,568.7614 M 217.59312,629.26304 C 217.59312,629.26304 217.67713,763.87834 217.67713,763.87834 217.67713,763.87834 130.37487,740.59799 130.37487,740.59799 130.37487,740.59799 130.07079,389.5489 130.07079,389.5489 130.07079,389.5489 242.82849,419.61767 242.82849,419.61767 295.63655,433.69984 334.63438,452.82973 359.82025,477.0056 385.00365,501.01898 397.59672,530.72101 397.60111,566.10823 397.60266,578.11589 395.72538,588.50118 391.96954,597.26435 388.21379,606.02702 383.14317,613.39818 376.75788,619.37799 370.56051,625.24757 363.33017,629.96115 355.06678,633.51885 346.99149,636.96648 338.44656,639.40859 329.43199,640.84524 350.28801,674.88806 368.98037,705.30999 385.51009,732.11255 392.6472,743.61263 399.50231,754.7971 406.07536,765.66597 412.83596,776.58438 418.84503,786.34247 424.10275,794.94039 429.3602,803.53796 433.67873,810.44582 437.05835,815.66413 437.05835,815.66413 441.84589,823.65605 441.84589,823.65605 441.84589,823.65605 344.96901,797.82249 344.96901,797.82249 344.96901,797.82249 255.62583,639.40505 255.62583,639.40505 255.62583,639.40505 217.59312,629.26304 217.59312,629.26304 217.59312,629.26304 217.59312,629.26304 217.59312,629.26304"
     inkscape:connector-curvature="0" />
</svg>
